<svg xmlns="http://www.w3.org/2000/svg" viewBox="0 0 32 32"><g fill="none" fill-rule="evenodd"><path fill="#00AAFF" fill-rule="nonzero" d="M32 15.96v-.4A15.99 15.99 0 0 0 15.64 0 16.05 16.05 0 0 0 0 16.37 16.02 16.02 0 0 0 15.96 32h15.96V16.13c.08-.09.08-.09.08-.17z"/><path fill="#FFFFFF" fill-rule="nonzero" d="M11.08 17.1c.9 0 1.79-.08 2.6-.24.17 0 .25-.08.25-.25v-3.99c0-.16-.08-.24-.25-.24h-1.54c-.17 0-.25.08-.25.24v2.7H11c-.56 0-1.3-.42-1.3-2.04v-1.39c0-1.54.57-2.03 1.55-2.03.98 0 1.87.08 2.44.08.08 0 .17 0 .17-.16V8.55c0-.08-.09-.16-.25-.16-.81-.16-1.63-.24-2.44-.24-1.71 0-3.58.73-3.58 3.74v1.47c.16 3 2.2 3.74 3.5 3.74zm12.62-.08h5.37c.16 0 .24-.08.24-.24v-1.3c0-.09-.08-.25-.24-.25H25.8c-.08 0-.16 0-.16-.08s0-.08.08-.16l3.34-5.13c.08-.08.08-.17.08-.33V8.4c0-.24-.24-.32-.49-.32h-5.13c-.16 0-.24.08-.24.24v1.3c0 .17.08.25.24.25h3.02c.08 0 .16 0 .16.08s0 .08-.08.08L23.36 15c-.08.16-.16.32-.16.48v.98c0 .4.24.57.49.57zM9.12 24.35c0 .08.09.16.17.16h1.06c.08 0 .16-.08.16-.16v-4.72h1.3c.08 0 .16-.09.16-.17v-.81a.18.18 0 0 0-.16-.16H7.74a.18.18 0 0 0-.16.16v.81c0 .08.08.17.16.17h1.3l.08 4.72zm4.07 0l.33-1.3h1.63l.32 1.3c0 .08.09.16.17.16h1.14c.08 0 .16-.08.16-.08l-1.22-5.05c-.16-.57-.73-.98-1.3-.9a1.27 1.27 0 0 0-1.39.9l-1.22 5.05c0 .08.08.16.16.16h1.14c0-.08.08-.16.08-.24zm1.06-4.64c0-.08 0-.08.08-.08.09 0 .09 0 .09.08l.48 2.28h-1.22l.57-2.28zm8.06 4.72v-.08l-1.22-2.28a1.7 1.7 0 0 0 1.06-1.63v-.08c0-1.47-1.06-1.87-2.44-1.87-.57 0-1.06 0-1.63.08-.25 0-.4.08-.4.4v5.46c0 .08.07.16.15.16h1.06c.08 0 .17-.08.17-.16v-2.04h.65l1.06 2.04c0 .08.08.16.16.16h1.22l.16-.16zm-1.63-3.99c0 .57-.24.81-1.14.81h-.57v-1.62h.66c.65 0 1.05.24 1.05.73v.08zm3.75 4.07c.08 0 .16-.08.16-.16v-5.7a.18.18 0 0 0-.16-.16h-1.06a.18.18 0 0 0-.16.16v5.7c0 .08.08.16.16.16h1.06zm4.8-6.02c-.49-.09-1.06-.09-1.54-.09-1.06 0-1.96.25-1.96 1.71v4.24c0 .08.08.16.16.16h1.06c.08 0 .17-.08.17-.16v-2.36h2.03c.08 0 .16-.08.16-.17v-.81a.18.18 0 0 0-.16-.16h-2.12v-.74c0-.4.17-.57.5-.57h1.62c.08 0 .16-.08.16-.16v-.73c.08-.08 0-.16-.08-.16zm-19.78 9.2c.33-.09.49-.41.49-.74v-.08c0-.65-.49-.81-1.06-.81-.24 0-.49 0-.73.08a.18.18 0 0 0-.17.16v2.36s0 .08.09.08h.48s.09 0 .09-.08v-.9h.32l.49.9s0 .08.08.08h.65l-.73-1.05zm-.16-.74c0 .25-.08.33-.5.33h-.24v-.65h.25c.32 0 .49.08.49.32zm2.52-.81c-.24 0-.49-.08-.65-.08-.49 0-.9.08-.9.73v1.14c0 .65.41.73.9.73.24 0 .49 0 .65-.08.08 0 .08 0 .08-.08v-.16s0-.08-.08-.08h-.73c-.17 0-.25-.09-.25-.25v-.4h.9s.08 0 .08-.09v-.32s0-.08-.08-.08h-.9v-.33c0-.16.08-.24.25-.24h.73s.08 0 .08-.09v-.32h-.08zm-.65-.73c-.08 0-.08 0-.08.08l-.33.4h.5l.4-.4h-.5v-.08zm2.85.73c-.25-.08-.49-.08-.73-.08a.9.9 0 0 0-1.06.9v.64c-.08.57.32 1.06.81 1.14h.16c.25 0 .57 0 .82-.08.08 0 .08 0 .08-.08v-1.22s0-.08-.08-.08h-.4s-.09 0-.09.08v.81h-.24c-.17 0-.41-.08-.41-.57v-.4c0-.5.16-.57.49-.57h.73s.08 0 .08-.08v-.41h-.16zm1.95 2.12h-.65c-.16 0-.24-.09-.24-.25v-1.79s0-.08-.08-.08h-.5s-.07 0-.07.08v1.87c0 .65.4.74.9.74.15 0 .4 0 .56-.09.08 0 .08 0 .08-.08v-.32c.08 0 .08-.08 0-.08.08 0 .08 0 0 0zm1.87-2.12c-.24 0-.48-.08-.65-.08-.48 0-.9.08-.9.73v1.14c0 .65.42.73.9.73.25 0 .5 0 .65-.08.09 0 .09 0 .09-.08v-.16s0-.08-.09-.08h-.73c-.16 0-.24-.09-.24-.25v-.4h.9s.07 0 .07-.09v-.32s0-.08-.08-.08h-.97v-.33c0-.16.08-.24.24-.24h.73s.08 0 .08-.09v-.32c.09 0 .09 0 0 0zm2.77 0h-.32c-.08 0-.17 0-.17.08l-.57.98-.57-.98c0-.08-.08-.08-.16-.08h-.4c-.09 0-.09 0-.17.08v2.44s0 .08.08.08h.5s.07 0 .07-.08V27.2l.33.57.08.08h.33c.08 0 .08 0 .08-.08l.32-.57v1.46s0 .08.08.08h.5s.07 0 .07-.08v-2.44c0-.08 0-.08-.08-.08zm2.12 0c-.24 0-.49-.08-.65-.08-.49 0-.9.08-.9.73v1.14c0 .65.41.73.9.73.24 0 .49 0 .65-.08.08 0 .08 0 .08-.08v-.16s0-.08-.08-.08h-.73c-.17 0-.25-.09-.25-.25v-.4h.9s.08 0 .08-.09v-.32s0-.08-.08-.08h-.98v-.33c0-.16.08-.24.25-.24h.73s.08 0 .08-.09v-.32c.08 0 .08 0 0 0zm2.52 0h-.4s-.09 0-.09.08v1.47l-.81-1.47c0-.08-.08-.08-.16-.08h-.4a.18.18 0 0 0-.17.16v2.44s0 .09.08.09h.4s.09 0 .09-.09v-1.46l.81 1.38c0 .08.08.08.16.08h.33c.08 0 .16-.08.16-.16v-2.44c.08 0 0 0 0 0zm2.12 0h-1.8s-.07 0-.07.08v.4s0 .09.08.09h.57v2.03s0 .09.08.09h.49s.08 0 .08-.09v-2.03h.57s.08 0 .08-.08l-.08-.5c.08 0 0-.07 0 0zm1.22-.25s.08 0 0 0l.49-.48h-.49c-.08 0-.08 0-.08.08l-.33.4h.41zm.65.25c-.24 0-.49-.08-.65-.08-.49 0-.9.08-.9.73v1.14c0 .65.41.73.9.73.25 0 .49 0 .65-.08.08 0 .08 0 .08-.08v-.16s0-.08-.08-.08h-.73c-.16 0-.24-.09-.24-.25v-.4h.9s.07 0 .07-.09v-.32s0-.08-.08-.08h-.9v-.33c0-.16.09-.24.25-.24h.73s.08 0 .08-.09v-.32h-.08zm-14.08-9.12h1.63c.08 0 .24-.08.24-.24l.4-1.96h2.45l.4 1.96c0 .08.09.24.25.24h1.63c.08 0 .16-.08.16-.16v-.08l-1.79-7.33a1.67 1.67 0 0 0-1.95-1.3c-.82-.17-1.63.4-1.87 1.3l-1.8 7.33v.08c.09.08.17.16.25.16zm3.34-7.08c0-.08.08-.16.16-.16s.16.08.16.16l.73 3.25h-1.7l.65-3.25z"/></g></svg>