<svg width="32" height="32" fill="none" xmlns="http://www.w3.org/2000/svg"><path fill-rule="evenodd" clip-rule="evenodd" d="M31.93 14.63c-4.27-2.85-9.85-4.58-15.95-4.58S4.3 11.78.02 14.63c4.25-1.41 9.22-2.29 15.96-2.29s11.7.88 15.95 2.29zm-18.4 1.49c-.31 0-.47.25-.52.56l-.061.41c-.073.492-.18 1.201-.209 1.43v.004c-.02.179-.041.367-.21.446-.17.08-.39-.04-.57-.2l-2.88-2.45a.82.82 0 00-.54-.2c-.41 0-.8.25-.8.87v3.84c-.02.25.18.47.43.49h.03c.26.01.48-.19.5-.46 0 0 .3-1.83.33-2.03.04-.24.08-.42.31-.49.21-.06.4.06.7.31.3.25 2.72 2.45 2.72 2.45.16.15.37.23.59.22.24 0 .67-.1.67-.83v-3.83c0-.35-.22-.54-.49-.54zm12.85 2.56c0 1.5 2.43 1.99 4.55 1.53.3-.07.5.02.57.28.07.28-.15.45-.4.54-2.62.9-6.19.16-6.19-2.27 0-1.71 1.52-2.76 3.62-2.76 2.32 0 3.11 1.32 3.11 2.2 0 .55-.24.82-.72.82-.386 0-.976-.003-1.532-.005h-.001c-.495-.003-.964-.005-1.237-.005-.4 0-.55-.23-.55-.43 0-.25.19-.44.54-.45.61-.02 1.35-.05 1.75-.07.43-.02.49-.33.27-.56-.35-.37-1.03-.55-1.9-.48-.83.07-1.88.53-1.88 1.66zM6.34 20.21c-2.12.46-4.54-.03-4.54-1.53 0-1.13 1.05-1.59 1.88-1.66.87-.07 1.55.11 1.9.48.22.23.16.54-.27.56-.4.02-1.13.05-1.75.07-.35.01-.54.2-.54.45 0 .2.15.43.55.43.273 0 .742.002 1.237.005.557.002 1.147.005 1.533.005.48 0 .72-.27.72-.82 0-.88-.79-2.2-3.11-2.2-2.1 0-3.62 1.05-3.62 2.76 0 2.43 3.57 3.17 6.19 2.27.25-.09.47-.26.4-.54-.08-.26-.28-.35-.58-.28zm16.621.386c-.046-.45-.154-1.491-.201-2.726 0-.04.02-.07.06-.08l1.38-.22h.04c.04.01.07.05.06.09-.06 1.3-.18 2.61-.22 3.03-.04.5-.29.63-.55.63-.26 0-.51-.14-.56-.64l-.009-.084zm.569-4.606a.761.761 0 00-.81.71v.09c0 .039.004.116.01.22l.01.19c0 .05.04.08.09.08h.01l1.44-.23c.04-.01.07-.04.07-.08 0-.07 0-.14.01-.17a.759.759 0 00-.74-.8c-.04-.01-.07-.01-.09-.01zm-3.126 2.124l1.006-.004c.5 0 .8.22.81.81 0 1.15-1.19 2.47-3.61 2.47-2.17 0-3.91-.87-3.91-2.67 0-1.68 1.75-2.72 3.93-2.72.688-.01 1.374.07 2.04.24.37.1.56.28.48.56-.08.26-.35.31-.64.27-3.24-.46-4.33.62-4.33 1.6 0 1.04 1.27 1.7 2.43 1.7.89 0 1.74-.3 2.09-.76.17-.23.17-.49-.35-.52-.38-.02-1.22-.06-1.87-.09-.43-.02-.55-.25-.55-.43 0-.2.11-.45.57-.45.555 0 1.292-.003 1.904-.006z" fill="#0AF"/></svg>