<svg xmlns="http://www.w3.org/2000/svg" viewBox="0 0 32 32"><path fill="#00AAFF" d="M31.93 14.63a28.85 28.85 0 0 0-15.95-4.58A28.9 28.9 0 0 0 .02 14.63c4.25-1.41 9.22-2.29 15.96-2.29s11.7.88 15.95 2.29zm-18.4 1.49c-.31 0-.47.25-.52.56l-.27 1.84c-.02.18-.04.37-.21.45-.17.08-.39-.04-.57-.2l-2.88-2.45a.82.82 0 0 0-.54-.2c-.41 0-.8.25-.8.87v3.84c-.02.25.18.47.43.49h.03c.26.01.48-.19.5-.46l.33-2.03c.04-.24.08-.42.31-.49.21-.06.4.06.7.31.3.25 2.72 2.45 2.72 2.45a.8.8 0 0 0 .59.22c.24 0 .67-.1.67-.83v-3.83c0-.35-.22-.54-.49-.54zm17.4 4.09c-2.12.46-4.55-.03-4.55-1.53 0-1.13 1.05-1.59 1.88-1.66.87-.07 1.55.11 1.9.48.22.23.16.54-.27.56l-1.75.07c-.35.01-.54.2-.54.45 0 .2.15.43.55.43l2.77.01c.48 0 .72-.27.72-.82 0-.88-.79-2.2-3.11-2.2-2.1 0-3.62 1.05-3.62 2.76 0 2.43 3.57 3.17 6.19 2.27.25-.09.47-.26.4-.54-.07-.26-.27-.35-.57-.28zm-24.59 0c-2.12.46-4.54-.03-4.54-1.53 0-1.13 1.05-1.59 1.88-1.66.87-.07 1.55.11 1.9.48.22.23.16.54-.27.56l-1.75.07c-.35.01-.54.2-.54.45 0 .2.15.43.55.43l2.77.01c.48 0 .72-.27.72-.82 0-.88-.79-2.2-3.11-2.2-2.1 0-3.62 1.05-3.62 2.76 0 2.43 3.57 3.17 6.19 2.27.25-.09.47-.26.4-.54-.08-.26-.28-.35-.58-.28zm16.42-2.34c.05 1.32.17 2.42.21 2.81.05.5.3.64.56.64.26 0 .51-.13.55-.63.04-.42.16-1.73.22-3.03.01-.04-.02-.08-.06-.09h-.04l-1.38.22c-.04.01-.06.04-.06.08zm.77-1.88a.76.76 0 0 0-.81.71v.09l.02.41c0 .05.04.08.09.08h.01l1.44-.23c.04-.01.07-.04.07-.08l.01-.17a.76.76 0 0 0-.74-.8l-.09-.01zm-2.12 2.12l-2.91.01c-.46 0-.57.25-.57.45 0 .18.12.41.55.43l1.87.09c.52.03.52.29.35.52-.35.46-1.2.76-2.09.76-1.16 0-2.43-.66-2.43-1.7 0-.98 1.09-2.06 4.33-1.6.29.04.56-.01.64-.27.08-.28-.11-.46-.48-.56a7.8 7.8 0 0 0-2.04-.24c-2.18 0-3.93 1.04-3.93 2.72 0 1.8 1.74 2.67 3.91 2.67 2.42 0 3.61-1.32 3.61-2.47-.01-.59-.31-.81-.81-.81z"/></svg>