<svg width="32" height="32" viewBox="0 0 32 32" fill="none" xmlns="http://www.w3.org/2000/svg">
<path fill-rule="evenodd" clip-rule="evenodd" d="M31.93 14.63C27.66 11.78 22.08 10.05 15.98 10.05C9.88002 10.05 4.30002 11.78 0.0200195 14.63C4.27002 13.22 9.24002 12.34 15.98 12.34C22.72 12.34 27.68 13.22 31.93 14.63ZM13.53 16.12C13.22 16.12 13.06 16.37 13.01 16.68C12.9969 16.7689 12.975 16.9159 12.949 17.0901C12.8755 17.5821 12.7696 18.2911 12.74 18.52L12.7396 18.5237C12.7197 18.7026 12.6989 18.8906 12.53 18.97C12.36 19.05 12.14 18.93 11.96 18.77L9.08002 16.32C8.93012 16.1903 8.73828 16.1192 8.54002 16.12C8.13002 16.12 7.74002 16.37 7.74002 16.99V20.83C7.72002 21.08 7.92002 21.3 8.17002 21.32H8.20002C8.46002 21.33 8.68002 21.13 8.70002 20.86C8.70002 20.86 9.00002 19.03 9.03002 18.83C9.07002 18.59 9.11002 18.41 9.34002 18.34C9.55002 18.28 9.74002 18.4 10.04 18.65C10.34 18.9 12.76 21.1 12.76 21.1C12.92 21.25 13.13 21.33 13.35 21.32C13.59 21.32 14.02 21.22 14.02 20.49V16.66C14.02 16.31 13.8 16.12 13.53 16.12ZM26.38 18.68C26.38 20.18 28.81 20.67 30.93 20.21C31.23 20.14 31.43 20.23 31.5 20.49C31.57 20.77 31.35 20.94 31.1 21.03C28.48 21.93 24.91 21.19 24.91 18.76C24.91 17.05 26.43 16 28.53 16C30.85 16 31.64 17.32 31.64 18.2C31.64 18.75 31.4 19.02 30.92 19.02C30.5341 19.02 29.944 19.0173 29.3879 19.0146L29.3871 19.0146H29.387H29.3869H29.3868C28.8915 19.0123 28.4232 19.01 28.15 19.01C27.75 19.01 27.6 18.78 27.6 18.58C27.6 18.33 27.79 18.14 28.14 18.13C28.75 18.11 29.49 18.08 29.89 18.06C30.32 18.04 30.38 17.73 30.16 17.5C29.81 17.13 29.13 16.95 28.26 17.02C27.43 17.09 26.38 17.55 26.38 18.68ZM6.34002 20.21C4.22002 20.67 1.80002 20.18 1.80002 18.68C1.80002 17.55 2.85002 17.09 3.68002 17.02C4.55002 16.95 5.23002 17.13 5.58002 17.5C5.80002 17.73 5.74002 18.04 5.31002 18.06C4.91002 18.08 4.18002 18.11 3.56002 18.13C3.21002 18.14 3.02002 18.33 3.02002 18.58C3.02002 18.78 3.17002 19.01 3.57002 19.01C3.84318 19.01 4.31152 19.0123 4.80687 19.0146H4.80699H4.80707L4.80788 19.0146C5.36402 19.0173 5.95405 19.02 6.34002 19.02C6.82002 19.02 7.06002 18.75 7.06002 18.2C7.06002 17.32 6.27002 16 3.95002 16C1.85002 16 0.33002 17.05 0.33002 18.76C0.33002 21.19 3.90002 21.93 6.52002 21.03C6.77002 20.94 6.99002 20.77 6.92002 20.49C6.84002 20.23 6.64002 20.14 6.34002 20.21ZM22.9613 20.5955L22.9613 20.5954L22.9613 20.5954C22.9148 20.1465 22.8068 19.1045 22.76 17.87C22.76 17.83 22.78 17.8 22.82 17.79L24.2 17.57H24.24C24.28 17.58 24.31 17.62 24.3 17.66C24.24 18.96 24.12 20.27 24.08 20.69C24.04 21.19 23.79 21.32 23.53 21.32C23.27 21.32 23.02 21.18 22.97 20.68L22.9613 20.5955ZM23.53 15.99C23.11 15.96 22.75 16.28 22.72 16.7V16.79C22.72 16.829 22.7242 16.9057 22.7299 17.0094L22.7299 17.0097C22.733 17.0658 22.7365 17.1298 22.74 17.2C22.74 17.25 22.78 17.28 22.83 17.28H22.84L24.28 17.05C24.32 17.04 24.35 17.01 24.35 16.97C24.35 16.9 24.35 16.83 24.36 16.8C24.38 16.37 24.05 16.01 23.62 16C23.58 15.99 23.55 15.99 23.53 15.99ZM20.4036 18.1138C20.8385 18.1118 21.2106 18.11 21.41 18.11C21.91 18.11 22.21 18.33 22.22 18.92C22.22 20.07 21.03 21.39 18.61 21.39C16.44 21.39 14.7 20.52 14.7 18.72C14.7 17.04 16.45 16 18.63 16C19.3176 15.9898 20.0036 16.0705 20.67 16.24C21.04 16.34 21.23 16.52 21.15 16.8C21.07 17.06 20.8 17.11 20.51 17.07C17.27 16.61 16.18 17.69 16.18 18.67C16.18 19.71 17.45 20.37 18.61 20.37C19.5 20.37 20.35 20.07 20.7 19.61C20.87 19.38 20.87 19.12 20.35 19.09C19.97 19.07 19.13 19.03 18.48 19C18.05 18.98 17.93 18.75 17.93 18.57C17.93 18.37 18.04 18.12 18.5 18.12C19.0553 18.12 19.7917 18.1166 20.4036 18.1138Z" fill="#00AAFF"/>
</svg>
