<svg xmlns="http://www.w3.org/2000/svg" id="logo-engie" viewBox="0 0 349.5 126.5"><path fill="#059ce7" d="M334.3 51.3C291.6 22.8 235.8 5.5 174.8 5.5S58 22.8 15.2 51.3c42.5-14.1 92.2-22.9 159.6-22.9s117 8.8 159.5 22.9zm-184 14.9c-3.1 0-4.7 2.5-5.2 5.6-.5 3.4-2.3 15.3-2.7 18.4-.2 1.8-.4 3.7-2.1 4.5s-3.9-.4-5.7-2l-28.8-24.5a8.2 8.2 0 0 0-5.4-2c-4.1 0-8 2.5-8 8.7v38.4c-.2 2.5 1.8 4.7 4.3 4.9h.3c2.6.1 4.8-1.9 5-4.6 0 0 3-18.3 3.3-20.3.4-2.4.8-4.2 3.1-4.9 2.1-.6 4 .6 7 3.1s27.2 24.5 27.2 24.5c1.6 1.5 3.7 2.3 5.9 2.2 2.4 0 6.7-1 6.7-8.3V71.6c0-3.5-2.2-5.4-4.9-5.4zm174 40.9c-21.2 4.6-45.5-.3-45.5-15.3 0-11.3 10.5-15.9 18.8-16.6 8.7-.7 15.5 1.1 19 4.8 2.2 2.3 1.6 5.4-2.7 5.6-4 .2-11.4.5-17.5.7-3.5.1-5.4 2-5.4 4.5 0 2 1.5 4.3 5.5 4.3 5.8 0 20.4.1 27.7.1 4.8 0 7.2-2.7 7.2-8.2 0-8.8-7.9-22-31.1-22-21 0-36.2 10.5-36.2 27.6 0 24.3 35.7 31.7 61.9 22.7 2.5-.9 4.7-2.6 4-5.4-.7-2.6-2.7-3.5-5.7-2.8zm-245.9 0c-21.2 4.6-45.4-.3-45.4-15.3 0-11.3 10.5-15.9 18.8-16.6 8.7-.7 15.5 1.1 19 4.8 2.2 2.3 1.6 5.4-2.7 5.6-4 .2-11.3.5-17.5.7-3.5.1-5.4 2-5.4 4.5 0 2 1.5 4.3 5.5 4.3 5.8 0 20.4.1 27.7.1 4.8 0 7.2-2.7 7.2-8.2 0-8.8-7.9-22-31.1-22-21 0-36.2 10.5-36.2 27.6 0 24.3 35.7 31.7 61.9 22.7 2.5-.9 4.7-2.6 4-5.4-.8-2.6-2.8-3.5-5.8-2.8zm164.2-23.4c.5 13.2 1.7 24.2 2.1 28.1.5 5 3 6.4 5.6 6.4s5.1-1.3 5.5-6.3c.4-4.2 1.6-17.3 2.2-30.3.1-.4-.2-.8-.6-.9h-.4l-13.8 2.2c-.4.1-.6.4-.6.8zm7.7-18.8c-4.2-.3-7.8 2.9-8.1 7.1v.9c0 .6.1 2.1.2 4.1 0 .5.4.8.9.8h.1l14.4-2.3c.4-.1.7-.4.7-.8 0-.7 0-1.4.1-1.7.2-4.3-3.1-7.9-7.4-8-.4-.1-.7-.1-.9-.1zm-21.2 21.2c-4.8 0-19.6.1-29.1.1-4.6 0-5.7 2.5-5.7 4.5 0 1.8 1.2 4.1 5.5 4.3 6.5.3 14.9.7 18.7.9 5.2.3 5.2 2.9 3.5 5.2-3.5 4.6-12 7.6-20.9 7.6-11.6 0-24.3-6.6-24.3-17 0-9.8 10.9-20.6 43.3-16 2.9.4 5.6-.1 6.4-2.7.8-2.8-1.1-4.6-4.8-5.6a78 78 0 0 0-20.4-2.4C179.5 65 162 75.4 162 92.2c0 18 17.4 26.7 39.1 26.7 24.2 0 36.1-13.2 36.1-24.7-.1-5.9-3.1-8.1-8.1-8.1z"/></svg>